n<?xml version="1.0" encoding="UTF-8"?>
<!-- Generator: visioncortex VTracer 0.6.3 -->
<svg version="1.1" xmlns="http://www.w3.org/2000/svg" width="1280" height="1280">
<path d="M0 0 C422.4 0 844.8 0 1280 0 C1280 422.4 1280 844.8 1280 1280 C857.6 1280 435.2 1280 0 1280 C0 857.6 0 435.2 0 0 Z " fill="#FCFCFC" transform="translate(0,0)"/>
<path d="M0 0 C1.02 -0 2.03 -0.01 3.08 -0.01 C5.21 -0.02 7.35 -0.02 9.48 -0.02 C12.74 -0.02 16 -0.04 19.25 -0.06 C21.33 -0.06 23.42 -0.06 25.5 -0.06 C26.95 -0.07 26.95 -0.07 28.43 -0.08 C33.75 -0.07 38.15 0.42 43.18 2.17 C43.18 2.5 43.18 2.83 43.18 3.17 C46.48 3.5 49.78 3.83 53.18 4.17 C53.18 4.5 53.18 4.83 53.18 5.17 C53.94 5.29 54.7 5.41 55.48 5.54 C56.48 5.7 57.47 5.87 58.5 6.04 C59.48 6.21 60.47 6.37 61.48 6.54 C64.18 7.17 64.18 7.17 67.18 9.17 C70.68 10.19 74.2 11.08 77.74 11.97 C81.35 13.22 83.28 14.74 86.18 17.17 C88.42 18.31 90.7 19.4 93 20.42 C94.16 20.94 95.32 21.46 96.52 22 C97.84 22.58 97.84 22.58 99.18 23.17 C99.18 23.83 99.18 24.49 99.18 25.17 C100.17 25.5 101.16 25.83 102.18 26.17 C109.49 30.2 115.63 35.11 121.68 40.84 C124.12 43.18 124.12 43.18 126.72 45.13 C129.45 47.39 131.49 49.82 133.68 52.61 C135.94 55.46 138.16 58.15 140.75 60.72 C143.03 63.01 144.81 65.26 146.62 67.92 C147.21 68.78 147.8 69.65 148.41 70.54 C149 71.41 149.58 72.28 150.18 73.17 C150.75 73.97 151.31 74.78 151.89 75.61 C154.23 78.97 156.05 81.74 157.31 85.67 C157.74 86.91 157.74 86.91 158.18 88.17 C160.2 88.86 160.2 88.86 162.18 89.17 C162.85 91.63 163.52 94.08 164.18 96.54 C164.47 97.59 164.47 97.59 164.76 98.66 C166.18 103.94 166.18 103.94 166.18 106.17 C166.84 106.17 167.5 106.17 168.18 106.17 C169.83 112.11 171.48 118.05 173.18 124.17 C173.84 123.84 174.5 123.51 175.18 123.17 C175.27 123.92 175.35 124.68 175.44 125.46 C175.83 128.9 176.23 132.35 176.62 135.79 C176.76 136.98 176.89 138.17 177.03 139.4 C177.23 141.13 177.23 141.13 177.43 142.89 C177.55 143.95 177.67 145.01 177.79 146.1 C178.18 149.14 178.66 152.15 179.18 155.17 C179.84 155.17 180.5 155.17 181.18 155.17 C181.29 154.44 181.4 153.72 181.52 152.98 C182.23 149.97 183.29 147.9 184.88 145.25 C185.43 144.33 185.97 143.41 186.54 142.46 C187.12 141.5 187.71 140.54 188.31 139.54 C188.9 138.55 189.5 137.56 190.11 136.54 C191.28 134.6 192.45 132.66 193.63 130.72 C194.86 128.7 196.08 126.67 197.29 124.63 C206.42 109.6 219.75 98.05 236.86 93.11 C243.98 91.59 251.24 91.89 258.48 91.9 C260.14 91.9 261.8 91.89 263.46 91.89 C268.01 91.87 272.56 91.87 277.11 91.88 C282.02 91.88 286.94 91.87 291.85 91.86 C301.46 91.84 311.08 91.83 320.7 91.83 C328.51 91.83 336.33 91.83 344.14 91.82 C366.3 91.8 388.46 91.8 410.61 91.8 C412.4 91.8 412.4 91.8 414.23 91.8 C416.02 91.8 416.02 91.8 417.85 91.8 C437.24 91.8 456.63 91.78 476.02 91.75 C495.92 91.72 515.83 91.71 535.74 91.71 C546.92 91.71 558.09 91.71 569.27 91.68 C578.78 91.67 588.29 91.66 597.8 91.67 C602.66 91.68 607.51 91.68 612.37 91.66 C616.81 91.65 621.25 91.65 625.69 91.67 C627.3 91.67 628.91 91.67 630.51 91.66 C645.46 91.56 645.46 91.56 651.18 96.17 C652.93 98.2 652.93 98.2 654.06 100.23 C654.45 100.9 654.84 101.57 655.24 102.27 C657.97 107.76 658.07 113.69 656.57 119.59 C654.78 124.42 652.31 128.7 649.58 133.05 C645.42 139.74 641.41 146.52 637.43 153.32 C636.29 155.26 635.15 157.2 634.01 159.14 C633.28 160.39 632.55 161.64 631.82 162.89 C631.17 164 630.51 165.11 629.84 166.26 C628.54 168.54 627.32 170.81 626.18 173.17 C625.52 173.17 624.86 173.17 624.18 173.17 C623.93 174.03 623.67 174.88 623.41 175.77 C622.13 179.33 620.53 182.34 618.62 185.61 C618.27 186.2 617.93 186.8 617.57 187.42 C616.45 189.34 615.32 191.25 614.18 193.17 C613.61 194.14 613.61 194.14 613.03 195.13 C601.34 214.95 589.71 232.66 566.31 239.52 C559.88 240.85 553.3 240.59 546.76 240.57 C545.09 240.57 543.43 240.58 541.77 240.59 C537.22 240.6 532.67 240.6 528.12 240.6 C523.21 240.6 518.29 240.62 513.38 240.63 C504.88 240.65 496.37 240.67 487.86 240.67 C475.56 240.68 463.27 240.7 450.97 240.73 C431.01 240.77 411.06 240.8 391.1 240.82 C371.72 240.84 352.34 240.87 332.96 240.91 C331.76 240.91 330.57 240.91 329.34 240.91 C323.34 240.92 317.35 240.93 311.35 240.95 C261.63 241.04 211.91 241.11 162.18 241.17 C161.85 242.49 161.52 243.81 161.18 245.17 C160.85 244.51 160.52 243.85 160.18 243.17 C159.94 243.81 159.7 244.45 159.45 245.11 C157.39 250.42 155.15 255.3 152.18 260.17 C151.19 260.17 150.2 260.17 149.18 260.17 C148.87 261.41 148.87 261.41 148.56 262.67 C145.92 269.38 141.22 274.13 136.18 279.17 C135.19 280.51 134.21 281.87 133.25 283.23 C130.58 286.87 128.14 289.01 124.18 291.17 C123.52 291.17 122.86 291.17 122.18 291.17 C121.93 291.77 121.68 292.37 121.42 292.98 C120.02 295.46 118.7 296.5 116.37 298.11 C113.93 299.8 111.98 301.39 109.95 303.57 C106.52 306.79 102.92 308.65 98.75 310.73 C94.69 312.78 90.76 314.78 86.98 317.31 C81.3 321.08 74.69 322.94 68.06 324.29 C66.14 324.73 66.14 324.73 64.18 325.17 C63.85 325.83 63.52 326.49 63.18 327.17 C60.54 327.17 57.9 327.17 55.18 327.17 C54.85 327.83 54.52 328.49 54.18 329.17 C42.22 333.23 29.23 332.63 16.77 332.56 C13.32 332.54 9.88 332.56 6.43 332.58 C-21.88 332.61 -21.88 332.61 -34.82 327.17 C-35.68 327 -36.55 326.84 -37.44 326.67 C-39.82 326.17 -39.82 326.17 -42.82 324.17 C-44.86 323.48 -46.93 322.84 -49 322.23 C-63.05 317.99 -63.05 317.99 -65.52 315.34 C-68.65 312.38 -72.16 310.81 -76 308.92 C-82.86 305.43 -88.34 301.62 -93.82 296.17 C-95.21 295.05 -95.21 295.05 -96.63 293.92 C-98.87 292.12 -100.9 290.3 -102.82 288.17 C-102.82 287.51 -102.82 286.85 -102.82 286.17 C-103.55 285.95 -104.28 285.73 -105.04 285.5 C-108.49 283.84 -109.99 281.88 -112.32 278.86 C-114.58 275.93 -116.79 273.19 -119.41 270.58 C-121.56 268.42 -123.18 266.41 -124.82 263.86 C-125.57 262.68 -125.57 262.68 -126.35 261.48 C-127.07 260.34 -127.07 260.34 -127.82 259.17 C-128.24 258.53 -128.66 257.89 -129.1 257.23 C-132.27 252.35 -134.85 247.24 -137.39 242 C-138.75 239.3 -140.26 236.75 -141.82 234.17 C-143.47 230.59 -144.89 227.08 -145.94 223.29 C-146.5 220.32 -146.5 220.32 -147.82 219.17 C-148.35 216.95 -148.78 214.73 -149.22 212.49 C-149.73 210.14 -149.73 210.14 -150.91 208.05 C-152.15 205.47 -151.56 203.86 -150.82 201.17 C-151.48 201.17 -152.14 201.17 -152.82 201.17 C-154.35 190.1 -155.16 179.24 -155.13 168.07 C-155.13 165.73 -155.15 163.4 -155.18 161.07 C-155.22 150.18 -153.97 139.84 -151.82 129.17 C-151.66 128.36 -151.51 127.56 -151.34 126.72 C-150.82 125.17 -150.82 125.17 -148.82 124.17 C-148.32 122.06 -147.83 119.94 -147.4 117.81 C-146.39 113.23 -144.91 108.81 -143.44 104.36 C-143.15 103.43 -142.86 102.5 -142.56 101.54 C-140.96 96.68 -139.67 93.65 -135.82 90.17 C-134.07 87.09 -132.48 83.99 -130.9 80.83 C-128.64 76.41 -126.09 72.91 -122.82 69.17 C-121.94 67.97 -121.09 66.77 -120.25 65.54 C-118.32 62.79 -116.23 60.51 -113.82 58.17 C-113.22 57.38 -112.62 56.6 -112 55.79 C-109.72 53.06 -107.28 50.98 -104.55 48.71 C-102.89 47.23 -101.56 45.73 -100.19 43.98 C-97.87 41.23 -95.88 39.95 -92.82 38.17 C-92.49 37.18 -92.16 36.19 -91.82 35.17 C-89.48 33.66 -87.19 32.3 -84.75 30.98 C-84.09 30.61 -83.43 30.24 -82.74 29.87 C-81.11 28.96 -79.46 28.06 -77.82 27.17 C-77.82 26.51 -77.82 25.85 -77.82 25.17 C-77.31 24.94 -76.81 24.71 -76.29 24.48 C-74 23.45 -71.72 22.4 -69.44 21.36 C-68.65 21 -67.85 20.64 -67.04 20.28 C-65.89 19.75 -65.89 19.75 -64.73 19.21 C-64.03 18.89 -63.33 18.57 -62.6 18.24 C-60.49 17.15 -60.49 17.15 -58.82 14.17 C-57.02 13.32 -57.02 13.32 -54.85 12.67 C-54.06 12.42 -53.26 12.18 -52.44 11.92 C-51.6 11.67 -50.75 11.42 -49.88 11.17 C-48.6 10.77 -48.6 10.77 -47.29 10.37 C-41.78 8.7 -36.25 7.15 -30.65 5.81 C-28.61 5.34 -28.61 5.34 -27.82 3.17 C-25.18 3.5 -22.54 3.83 -19.82 4.17 C-19.49 3.18 -19.16 2.19 -18.82 1.17 C-12.51 0.24 -6.37 0.01 0 0 Z " fill="#020305" transform="translate(281.81640625,472.83203125)"/>
<path d="M0 0 C1.9 -0.03 1.9 -0.03 3.84 -0.07 C5.23 -0.08 6.62 -0.09 8.01 -0.1 C8.71 -0.11 9.42 -0.12 10.14 -0.12 C13.86 -0.16 17.58 -0.18 21.3 -0.2 C25.12 -0.21 28.94 -0.27 32.76 -0.34 C35.72 -0.39 38.67 -0.4 41.63 -0.4 C43.03 -0.41 44.44 -0.43 45.85 -0.46 C55.64 -0.67 61.52 0.74 68.85 7.34 C69.4 7.78 69.96 8.21 70.53 8.67 C74.62 12.49 74.84 17.37 75.06 22.64 C74.71 28.79 73.12 34.51 71.4 40.41 C70.56 43.37 69.83 46.35 69.1 49.34 C68.68 51 68.27 52.67 67.85 54.34 C67.52 53.68 67.19 53.02 66.85 52.34 C66.19 52.34 65.53 52.34 64.85 52.34 C64.54 54.19 64.54 54.19 64.23 56.09 C61.86 66.54 56.74 74.28 48.85 81.34 C47.61 82.7 47.61 82.7 46.35 84.09 C41.55 88.41 36.29 90.69 29.85 91.34 C29.85 92 29.85 92.66 29.85 93.34 C31.34 93.83 31.34 93.83 32.85 94.34 C31.2 94.34 29.55 94.34 27.85 94.34 C27.85 93.68 27.85 93.02 27.85 92.34 C24.73 92.98 24.73 92.98 23.85 95.34 C20.5 96.55 17.09 96.54 13.55 96.65 C12.35 96.7 11.14 96.74 9.9 96.78 C8.65 96.82 7.39 96.86 6.1 96.9 C4.2 96.97 4.2 96.97 2.25 97.03 C-0.88 97.14 -4.01 97.24 -7.15 97.34 C-8.14 100.31 -9.13 103.28 -10.15 106.34 C-10.81 105.35 -11.47 104.36 -12.15 103.34 C-15.45 113.24 -18.75 123.14 -22.15 133.34 C-35.02 133.34 -47.89 133.34 -61.15 133.34 C-62.82 130 -60.97 126.73 -59.9 123.34 C-59.68 122.6 -59.46 121.86 -59.24 121.1 C-57.52 115.58 -57.52 115.58 -54.15 113.34 C-53.3 111.47 -53.3 111.47 -52.77 109.21 C-52.53 108.33 -52.28 107.45 -52.03 106.55 C-51.74 105.49 -51.45 104.43 -51.15 103.34 C-50.34 100.5 -49.5 97.67 -48.65 94.84 C-48.45 94.13 -48.25 93.42 -48.04 92.7 C-46.49 87.57 -46.49 87.57 -43.15 85.34 C-42.04 82.9 -42.04 82.9 -41.21 80 C-40.7 78.4 -40.7 78.4 -40.19 76.78 C-39.84 75.66 -39.5 74.55 -39.15 73.4 C-38.47 71.2 -37.78 69 -37.09 66.81 C-36.79 65.83 -36.49 64.86 -36.18 63.85 C-35.13 61.3 -34.14 60.17 -32.15 58.34 C-30.99 55.59 -30.99 55.59 -30.09 52.53 C-29.77 51.51 -29.44 50.49 -29.11 49.44 C-28.8 48.42 -28.48 47.39 -28.15 46.34 C-26.93 42.61 -25.64 38.96 -24.15 35.34 C-23.49 35.34 -22.83 35.34 -22.15 35.34 C-22.48 33.69 -22.81 32.04 -23.15 30.34 C-22.16 30.34 -21.17 30.34 -20.15 30.34 C-20.05 29.54 -19.95 28.74 -19.84 27.92 C-18.98 23.45 -17.57 19.27 -16.09 14.96 C-15.8 14.13 -15.52 13.3 -15.23 12.44 C-14.54 10.41 -13.85 8.37 -13.15 6.34 C-12.16 6.34 -11.17 6.34 -10.15 6.34 C-10.05 5.72 -9.94 5.1 -9.84 4.46 C-8.29 -0.32 -4.3 0.06 0 0 Z " fill="#FCFCFC" transform="translate(233.148681640625,572.661865234375)"/>
<path d="M0 0 C0.68 -0.01 1.36 -0.02 2.06 -0.04 C5.79 -0.05 7.38 0.07 10.56 2.19 C12.56 2.47 14.56 2.69 16.56 2.88 C25 4.07 31.94 7.85 37.56 14.31 C38.55 15.74 38.55 15.74 39.56 17.19 C40.09 17.86 40.62 18.53 41.16 19.21 C43.25 23.64 43 27.79 42.94 32.62 C42.95 33.55 42.96 34.48 42.97 35.44 C42.97 36.35 42.96 37.25 42.96 38.18 C42.96 39 42.95 39.82 42.95 40.66 C42.45 43.89 41.13 46.34 39.56 49.19 C34.51 49.29 29.46 49.36 24.4 49.41 C22.68 49.43 20.96 49.45 19.25 49.49 C16.77 49.54 14.3 49.56 11.83 49.58 C10.68 49.61 10.68 49.61 9.5 49.64 C5.83 49.64 3.96 49.51 1.05 47.16 C0.56 46.51 0.07 45.86 -0.44 45.19 C0.22 44.2 0.88 43.21 1.56 42.19 C1.8 39.21 1.8 39.21 1.69 36 C1.67 34.91 1.65 33.83 1.63 32.71 C1.61 31.88 1.59 31.04 1.56 30.19 C-5.27 31.46 -8.65 33.2 -12.75 39.06 C-13.79 42.28 -13.79 44.83 -13.44 48.19 C-10.71 52.27 -7.64 54.6 -3.5 57.19 C0.73 59.84 4.13 62.55 7.56 66.19 C8.28 66.93 8.99 67.67 9.73 68.43 C13.48 72.5 16.32 75.65 17.56 81.19 C17.89 81.52 18.22 81.85 18.56 82.19 C18.81 85.6 18.75 89.02 18.75 92.44 C18.76 93.39 18.77 94.35 18.79 95.33 C18.8 100.09 18.75 103.86 16.56 108.19 C16.19 110.18 15.84 112.18 15.56 114.19 C14.9 113.53 14.24 112.87 13.56 112.19 C11.91 115.82 10.26 119.45 8.56 123.19 C7.9 123.19 7.24 123.19 6.56 123.19 C5.57 125.17 5.57 125.17 4.56 127.19 C3.9 127.19 3.24 127.19 2.56 127.19 C2.51 127.79 2.45 128.4 2.39 129.02 C1.56 131.19 1.56 131.19 -0.74 132.64 C-1.73 133.05 -2.73 133.45 -3.75 133.88 C-4.72 134.29 -5.68 134.71 -6.68 135.14 C-16 137.74 -25.95 137.35 -35.56 137.31 C-36.66 137.32 -37.77 137.32 -38.9 137.32 C-52.69 137.31 -63 136.7 -73.38 126.75 C-78.16 121.9 -80.79 117.43 -80.9 110.48 C-80.89 109.8 -80.89 109.13 -80.88 108.44 C-80.87 107.74 -80.87 107.04 -80.86 106.32 C-80.7 100.48 -79.56 95.22 -76.44 90.19 C-73.47 88.7 -70.42 88.98 -67.16 88.95 C-66.44 88.94 -65.72 88.93 -64.98 88.92 C-63.46 88.91 -61.93 88.9 -60.41 88.89 C-58.08 88.88 -55.75 88.83 -53.42 88.79 C-51.94 88.78 -50.46 88.77 -48.98 88.76 C-48.28 88.74 -47.59 88.73 -46.87 88.71 C-43.52 88.72 -41.7 89 -38.95 90.97 C-36.98 93.85 -37.4 95.81 -38 99.15 C-38.15 99.82 -38.29 100.5 -38.44 101.19 C-38.8 103.18 -39.14 105.18 -39.44 107.19 C-37.79 108.84 -35.9 108.52 -33.62 108.62 C-29.74 108.56 -28.83 108.53 -25.81 105.88 C-23.9 100.75 -23.26 96.57 -24.44 91.19 C-28.31 83.99 -35.43 80.13 -42.13 75.93 C-46.7 72.97 -49.45 70.24 -51.58 65.1 C-52.33 63.11 -52.33 63.11 -53.97 61.72 C-57.34 58.2 -57.46 52.26 -57.41 47.59 C-56.95 42.3 -55.86 37.29 -54.44 32.19 C-53.45 32.19 -52.46 32.19 -51.44 32.19 C-51.13 30.76 -51.13 30.76 -50.81 29.31 C-48.31 20.79 -44.05 14.79 -36.29 10.44 C-34.12 9.25 -34.12 9.25 -33.44 6.19 C-25.86 2.67 -17.61 2.84 -9.44 3.19 C-9.44 2.53 -9.44 1.87 -9.44 1.19 C-6.42 -0.32 -3.31 0 0 0 Z " fill="#FCFCFC" transform="translate(374.4375,569.8125)"/>
<path d="M0 0 C1.11 0.01 1.11 0.01 2.23 0.01 C3.04 0.01 3.84 0.02 4.66 0.02 C5.5 0.03 6.34 0.04 7.2 0.06 C8.46 0.06 8.46 0.06 9.75 0.06 C16 0.1 16 0.1 17.14 1.24 C17.21 4.11 17.23 6.94 17.2 9.81 C17.19 10.61 17.19 11.42 17.19 12.25 C17.17 14.25 17.16 16.24 17.14 18.24 C18.35 18.3 19.57 18.36 20.82 18.43 C22.4 18.51 23.99 18.6 25.57 18.68 C26.38 18.72 27.18 18.76 28.01 18.8 C34.02 19.13 34.02 19.13 35.14 20.24 C35.28 24.58 35.18 28.9 35.14 33.24 C26.72 33.74 26.72 33.74 18.14 34.24 C18.14 44.47 18.14 54.7 18.14 65.24 C21.29 66.29 23.52 66.34 26.82 66.31 C27.82 66.3 28.81 66.29 29.84 66.28 C30.59 66.27 31.35 66.25 32.14 66.24 C32.47 67.23 32.8 68.22 33.14 69.24 C33.8 69.24 34.46 69.24 35.14 69.24 C35.47 69.9 35.8 70.56 36.14 71.24 C37.46 68.27 38.78 65.3 40.14 62.24 C44.05 63.22 47.29 64.61 50.92 66.31 C55.35 68.18 59.07 68.35 63.89 68.31 C65.06 68.3 66.23 68.29 67.43 68.28 C68.33 68.27 69.22 68.25 70.14 68.24 C70.63 66.76 70.63 66.76 71.14 65.24 C67.38 60.95 64.41 59.35 58.95 57.81 C50.99 55.39 42.84 52.51 38.14 45.24 C35.86 38.41 37.13 32.86 39.95 26.44 C42.84 21.1 48.67 18.45 54.14 16.24 C66.39 13.14 79.08 15.37 90.14 21.24 C90.14 21.9 90.14 22.56 90.14 23.24 C90.8 23.24 91.46 23.24 92.14 23.24 C90.83 27.47 89.43 31.44 87.14 35.24 C84.28 36.64 83 36.2 79.93 35.25 C77.53 34.29 75.14 33.33 72.74 32.37 C67.76 30.81 63.13 30.64 58.14 32.24 C57.81 33.89 57.48 35.54 57.14 37.24 C60.21 38.57 63.29 39.6 66.5 40.5 C76.61 43.38 84.4 45.74 90.8 54.52 C93.37 59.75 92.73 65.56 92.14 71.24 C89.62 76.77 85.21 80.87 79.64 83.36 C74.74 84.59 70.04 84.63 65.01 84.62 C63.99 84.62 62.96 84.62 61.9 84.62 C54.23 84.5 48.14 83.49 41.14 80.24 C39.47 79.57 37.81 78.9 36.14 78.24 C36.05 78.86 35.97 79.48 35.89 80.12 C35.14 82.24 35.14 82.24 33.54 83.33 C26.03 86.18 15.57 86.24 8.14 83.24 C3.41 80.31 -1.75 76.93 -3.43 71.35 C-4.13 67.93 -4.1 64.46 -4.18 60.98 C-4.2 60.18 -4.22 59.39 -4.24 58.57 C-4.31 56.05 -4.37 53.52 -4.43 50.99 C-4.47 49.28 -4.51 47.56 -4.56 45.84 C-4.66 41.64 -4.77 37.44 -4.86 33.24 C-6.16 33.26 -7.46 33.28 -8.8 33.31 C-10.16 33.33 -11.51 33.31 -12.86 33.24 C-14.6 31.5 -14.04 29.16 -14.05 26.81 C-14.07 25.82 -14.08 24.83 -14.09 23.81 C-13.86 21.24 -13.86 21.24 -11.86 19.24 C-9.18 18.97 -6.57 19.16 -3.86 19.24 C-3.89 18.04 -3.91 16.83 -3.93 15.59 C-3.95 14.02 -3.97 12.44 -3.99 10.87 C-4.01 10.07 -4.02 9.28 -4.04 8.46 C-4.06 6.39 -3.97 4.31 -3.86 2.24 C-1.86 0.24 -1.86 0.24 0 0 Z " fill="#FDFDFD" transform="translate(768.863525390625,603.757080078125)"/>
<path d="M0 0 C7.75 6.38 11.45 14.51 12.75 24.38 C12.75 28 12.75 31.63 12.75 35.38 C-2.1 35.71 -16.95 36.03 -32.25 36.38 C-32.58 37.03 -32.91 37.7 -33.25 38.38 C-30.58 42.03 -28.31 44.35 -24.25 46.38 C-17.55 47.4 -11.74 46.89 -5.97 43.25 C-4.25 42.38 -4.25 42.38 -0.25 42.38 C1.6 43.77 1.6 43.77 3.38 45.62 C3.97 46.23 4.56 46.83 5.16 47.45 C6.73 49.35 7.75 51.14 8.75 53.38 C7.45 54.5 6.14 55.6 4.81 56.69 C4.08 57.3 3.35 57.92 2.6 58.55 C-4.39 63.03 -11.46 63.91 -19.62 63.81 C-20.55 63.8 -21.47 63.79 -22.43 63.78 C-33.7 63.49 -40.98 60.67 -49.15 52.73 C-55.59 45.5 -57.68 36.43 -57.12 26.88 C-56.04 18.03 -52.6 9.73 -46.25 3.38 C-33.1 -6.81 -14.22 -9.71 0 0 Z " fill="#FDFDFD" transform="translate(533.25,624.625)"/>
<path d="M0 0 C7.1 6.38 10.69 15.38 11.88 24.69 C11.88 27.99 11.88 31.29 11.88 34.69 C-3.3 35.02 -18.48 35.35 -34.12 35.69 C-32.96 40.34 -31.39 42.28 -27.35 44.79 C-21.77 47.05 -14.94 46.44 -9.49 44.19 C-8.71 43.7 -7.92 43.2 -7.12 42.69 C-6.46 42.69 -5.8 42.69 -5.12 42.69 C-5.12 42.03 -5.12 41.37 -5.12 40.69 C-2.26 42.02 0.14 43.5 2.57 45.5 C3.17 45.98 3.77 46.47 4.39 46.96 C6.26 49.13 6.53 50.89 6.88 53.69 C5.56 54.64 4.22 55.57 2.88 56.5 C1.77 57.29 1.77 57.29 0.63 58.09 C-6.64 62.33 -12.71 63.19 -20.99 63.13 C-21.92 63.15 -22.85 63.17 -23.81 63.19 C-34.53 63.18 -42.21 59.54 -49.91 52.2 C-56.31 44.92 -58.46 36.88 -58.33 27.37 C-57.6 18.21 -53.67 8.62 -46.8 2.38 C-33.25 -8.22 -14.55 -9.87 0 0 Z " fill="#FDFDFD" transform="translate(668.1171875,625.30859375)"/>
<path d="M0 0 C4.98 4.4 8.5 9.87 9.31 16.55 C9.46 19.57 9.52 22.57 9.55 25.59 C9.58 27.23 9.58 27.23 9.61 28.91 C9.65 31.22 9.68 33.53 9.71 35.84 C9.75 39.38 9.81 42.93 9.88 46.48 C9.92 48.72 9.95 50.97 9.98 53.21 C10 54.28 10.02 55.34 10.04 56.44 C10.05 57.42 10.06 58.4 10.07 59.41 C10.09 60.71 10.09 60.71 10.1 62.03 C10 64 10 64 9 65 C7.61 65.1 6.21 65.13 4.82 65.13 C3.97 65.13 3.13 65.14 2.26 65.14 C1.37 65.13 0.48 65.13 -0.44 65.12 C-1.32 65.13 -2.21 65.13 -3.12 65.14 C-3.97 65.14 -4.81 65.13 -5.68 65.13 C-6.46 65.13 -7.24 65.13 -8.04 65.13 C-10 65 -10 65 -12 64 C-12.01 62.89 -12.03 61.77 -12.04 60.62 C-12.1 56.46 -12.18 52.31 -12.26 48.15 C-12.3 46.35 -12.32 44.56 -12.35 42.76 C-12.38 40.17 -12.43 37.59 -12.49 35 C-12.49 34.2 -12.5 33.41 -12.51 32.59 C-12.64 27.36 -13.56 23.65 -16 19 C-18.3 16.9 -19.8 16.06 -22.93 15.91 C-27.69 16.26 -30.64 17.45 -34 21 C-37.13 26.05 -37.47 30.14 -37.51 35.9 C-37.53 36.73 -37.55 37.57 -37.57 38.43 C-37.62 41.08 -37.65 43.73 -37.69 46.38 C-37.72 48.18 -37.76 49.98 -37.79 51.79 C-37.88 56.19 -37.94 60.59 -38 65 C-41.29 65.06 -44.58 65.09 -47.88 65.12 C-48.81 65.14 -49.75 65.16 -50.71 65.18 C-51.61 65.18 -52.51 65.19 -53.43 65.2 C-54.26 65.21 -55.08 65.22 -55.94 65.23 C-58 65 -58 65 -60 63 C-60.25 60.34 -60.25 60.34 -60.26 56.93 C-60.27 55.65 -60.27 54.38 -60.28 53.07 C-60.27 51.67 -60.27 50.27 -60.27 48.88 C-60.27 47.45 -60.27 46.02 -60.27 44.59 C-60.27 41.6 -60.27 38.61 -60.26 35.62 C-60.25 31.77 -60.26 27.93 -60.27 24.09 C-60.28 21.15 -60.27 18.2 -60.27 15.25 C-60.27 13.84 -60.27 12.42 -60.27 11 C-60.28 9.03 -60.27 7.05 -60.26 5.07 C-60.26 3.94 -60.26 2.82 -60.25 1.66 C-60 -1 -60 -1 -58 -3 C-56.03 -3.23 -56.03 -3.23 -53.65 -3.2 C-52.8 -3.19 -51.95 -3.18 -51.07 -3.18 C-49.74 -3.15 -49.74 -3.15 -48.38 -3.12 C-47.03 -3.11 -47.03 -3.11 -45.66 -3.1 C-43.44 -3.07 -41.22 -3.04 -39 -3 C-38.01 -0.03 -37.02 2.94 -36 6 C-35.26 5.24 -34.51 4.47 -33.75 3.69 C-24.54 -5.31 -11.1 -7.36 0 0 Z " fill="#FDFDFD" transform="translate(744,623)"/>
<path d="M0 0 C6.27 0 12.54 0 19 0 C22.37 7.87 22.37 7.87 23.32 10.96 C23.64 12 23.64 12 23.97 13.05 C24.29 14.13 24.29 14.13 24.63 15.23 C25.11 16.79 25.59 18.35 26.08 19.91 C26.82 22.34 27.57 24.77 28.31 27.2 C29.04 29.57 29.77 31.93 30.5 34.3 C30.72 35.03 30.95 35.75 31.17 36.5 C32.17 39.71 33.12 42.19 35 45 C35.38 43.74 35.76 42.49 36.15 41.19 C37.55 36.53 38.97 31.88 40.39 27.22 C41 25.2 41.61 23.19 42.22 21.17 C43.09 18.27 43.98 15.38 44.86 12.48 C45.13 11.58 45.4 10.67 45.68 9.74 C45.94 8.9 46.2 8.06 46.47 7.2 C46.69 6.46 46.91 5.72 47.15 4.96 C48.13 2.7 49.04 1.49 51 0 C53.94 -0.24 56.64 -0.33 59.56 -0.25 C60.34 -0.24 61.12 -0.24 61.93 -0.23 C67.69 -0.15 67.69 -0.15 70 1 C68.66 7.72 66.72 13.91 64.26 20.3 C63.9 21.26 63.54 22.22 63.16 23.2 C62.4 25.22 61.63 27.23 60.86 29.25 C59.7 32.29 58.54 35.34 57.38 38.39 C46.84 66.16 46.84 66.16 45 68 C41.55 68.28 38.09 68.23 34.62 68.25 C33.65 68.27 32.68 68.29 31.68 68.31 C30.75 68.32 29.81 68.32 28.85 68.33 C27.99 68.34 27.14 68.35 26.25 68.36 C23.45 67.91 22.81 67.14 21 65 C20.08 63.13 20.08 63.13 19.3 61 C19 60.2 18.71 59.39 18.4 58.57 C18.09 57.7 17.78 56.83 17.45 55.93 C17.12 55.03 16.78 54.12 16.44 53.18 C15.37 50.27 14.31 47.35 13.25 44.44 C12.21 41.59 11.16 38.73 10.11 35.88 C9.42 34 8.74 32.12 8.06 30.24 C6.4 25.7 4.69 21.19 2.85 16.72 C2.52 15.9 2.18 15.07 1.84 14.22 C1.2 12.68 0.55 11.14 -0.11 9.61 C-0.95 7.54 -0.95 7.54 -2 4 C-1.34 2.68 -0.68 1.36 0 0 Z " fill="#FDFDFD" transform="translate(544,620)"/>
<path d="M0 0 C3.75 0.75 3.75 0.75 5.75 3.75 C6.85 13.46 3.38 22.7 -2.31 30.56 C-4.7 33.09 -5.89 33.69 -9.37 34.23 C-12.37 34.25 -15.27 34.1 -18.25 33.75 C-19.25 31.75 -19.25 31.75 -18.69 29.59 C-18.26 28.37 -18.26 28.37 -17.81 27.12 C-17.53 26.31 -17.24 25.49 -16.94 24.65 C-16.71 24.02 -16.49 23.4 -16.25 22.75 C-15.26 22.75 -14.27 22.75 -13.25 22.75 C-13.1 21.92 -12.96 21.08 -12.8 20.22 C-8.85 0.4 -8.85 0.4 0 0 Z " fill="#020305" transform="translate(257.25,602.25)"/>
<path d="M0 0 C3.73 4.11 4.06 6.34 5 12 C-3.58 12 -12.16 12 -21 12 C-21.33 11.34 -21.66 10.68 -22 10 C-20.21 5.48 -17.46 1.84 -13.25 -0.62 C-8.59 -2.6 -4.52 -2.19 0 0 Z " fill="#020305" transform="translate(654,636)"/>
<path d="M0 0 C3.73 4.11 4.06 6.34 5 12 C-3.58 12 -12.16 12 -21 12 C-20 7.01 -19.18 4.85 -16 1 C-10.5 -2.45 -5.84 -2.68 0 0 Z " fill="#020305" transform="translate(520,636)"/>
</svg>
